<?xml version="1.0" standalone="no"?>
<!DOCTYPE svg PUBLIC "-//W3C//DTD SVG 20010904//EN"
 "http://www.w3.org/TR/2001/REC-SVG-20010904/DTD/svg10.dtd">
<svg version="1.0" xmlns="http://www.w3.org/2000/svg"
 width="512.000000pt" height="512.000000pt" viewBox="0 0 512.000000 512.000000"
 preserveAspectRatio="xMidYMid meet">
<metadata>
Created by potrace 1.11, written by Peter Selinger 2001-2013
</metadata>
<g transform="translate(0.000000,512.000000) scale(0.100000,-0.100000)"
fill="#000000" stroke="none">
<path d="M2520 4149 c-14 -6 -513 -292 -1108 -637 l-1084 -627 211 -3 211 -2
2 -888 3 -888 28 -42 c15 -23 46 -54 69 -69 l41 -28 353 -3 353 -3 3 569 3
568 28 42 c15 23 46 54 69 69 l42 28 817 0 817 0 44 -30 c28 -20 52 -49 71
-84 l27 -55 0 -553 0 -553 340 0 c285 0 347 3 378 16 47 19 88 58 113 106 18
36 19 71 19 917 l0 881 211 2 211 3 -1084 627 c-595 345 -1096 632 -1111 637
-34 13 -44 13 -77 0z"/>
<path d="M1814 2017 c-2 -8 -3 -56 -2 -108 l3 -94 745 0 745 0 0 105 0 105
-743 3 c-611 2 -743 0 -748 -11z"/>
<path d="M1810 1495 l0 -105 750 0 750 0 0 105 0 105 -750 0 -750 0 0 -105z"/>
<path d="M1810 1065 l0 -105 750 0 750 0 0 105 0 105 -750 0 -750 0 0 -105z"/>
</g>
</svg>
